<svg width="24" height="24" viewBox="0 0 24 24" fill="none" xmlns="http://www.w3.org/2000/svg">
<g clip-path="url(#clip0_22_7445)">
<path d="M8.56 2.89967C9.62531 2.29855 10.8295 1.98708 12.0527 1.99629C13.2759 2.0055 14.4753 2.33507 15.5314 2.95216C16.5876 3.56925 17.4636 4.45232 18.0721 5.51339C18.6807 6.57445 19.0006 7.77647 19 8.99967V12.9997M13.73 20.9997C13.5542 21.3027 13.3018 21.5543 12.9982 21.7292C12.6946 21.9041 12.3504 21.9961 12 21.9961C11.6496 21.9961 11.3054 21.9041 11.0018 21.7292C10.6982 21.5543 10.4458 21.3027 10.27 20.9997M17 16.9997H2C2.79565 16.9997 3.55871 16.6836 4.12132 16.121C4.68393 15.5584 5 14.7953 5 13.9997V8.99967C4.99859 7.87938 5.26608 6.77512 5.78 5.77967L17 16.9997Z" stroke="black" stroke-width="2" stroke-linecap="round" stroke-linejoin="round"/>
<path d="M1 1L23 23" stroke="black" stroke-width="2" stroke-linecap="round" stroke-linejoin="round"/>
</g>
<defs>
<clipPath id="clip0_22_7445">
<rect width="24" height="24" fill="white"/>
</clipPath>
</defs>
</svg>
