<svg width="24" height="24" viewBox="0 0 24 24" fill="none" xmlns="http://www.w3.org/2000/svg">
<g clip-path="url(#clip0_22_8309)">
<path d="M1 1L23 23" stroke="black" stroke-width="2" stroke-linecap="round" stroke-linejoin="round"/>
<path d="M16.7202 11.0596C17.5393 11.4593 18.3053 11.9599 19.0002 12.5496" stroke="black" stroke-width="2" stroke-linecap="round" stroke-linejoin="round"/>
<path d="M5 12.5502C6.48208 11.311 8.26587 10.4864 10.17 10.1602" stroke="black" stroke-width="2" stroke-linecap="round" stroke-linejoin="round"/>
<path d="M10.71 5.04974C12.8524 4.87711 15.0076 5.1379 17.047 5.81656C19.0864 6.49521 20.9682 7.57782 22.58 8.99974" stroke="black" stroke-width="2" stroke-linecap="round" stroke-linejoin="round"/>
<path d="M1.41992 9.00012C2.80709 7.77397 4.39762 6.79934 6.11992 6.12012" stroke="black" stroke-width="2" stroke-linecap="round" stroke-linejoin="round"/>
<path d="M8.52979 16.1097C9.54499 15.3885 10.7595 15.001 12.0048 15.001C13.2501 15.001 14.4646 15.3885 15.4798 16.1097" stroke="black" stroke-width="2" stroke-linecap="round" stroke-linejoin="round"/>
<path d="M12 20H12.01" stroke="black" stroke-width="2" stroke-linecap="round" stroke-linejoin="round"/>
</g>
<defs>
<clipPath id="clip0_22_8309">
<rect width="24" height="24" fill="white"/>
</clipPath>
</defs>
</svg>
